<svg width="275" height="40" viewBox="0 0 275 40" fill="none" xmlns="http://www.w3.org/2000/svg">
<path d="M75.2581 29.3456C75.2581 24.7286 74.6589 23.8976 68.3903 22.2354C65.3482 21.4505 65.21 21.312 65.21 19.5114C65.21 18.1263 65.6248 17.5722 68.0677 17.5722C69.8192 17.5722 72.5386 17.8954 74.2441 18.2186L74.7972 13.7401C72.8613 13.2323 70.1418 12.9552 68.0677 12.9552C61.6609 12.9552 59.6789 14.9405 59.6789 19.4652C59.6789 23.8052 60.3242 25.1903 65.8092 26.5293C69.4505 27.4065 69.727 28.099 69.727 29.4842C69.727 31.1924 69.3583 31.7465 66.8693 31.7465C64.5647 31.7465 62.0757 31.331 60.1859 30.7769L59.4023 35.0707C61.4765 35.8095 64.749 36.3635 67.1458 36.3635C73.9214 36.3635 75.2581 33.6856 75.2581 29.3456Z" fill="white"/>
<path d="M99.3305 27.4988V21.8199C99.3305 17.2029 97.2563 12.9552 89.5589 12.9552C81.8615 12.9552 79.7874 17.2029 79.7874 21.8199V27.4988C79.7874 32.1159 81.8615 36.3635 89.5589 36.3635C97.2563 36.3635 99.3305 32.1159 99.3305 27.4988ZM93.7072 21.6352V27.6835C93.7072 30.2229 92.5549 31.5618 89.5589 31.5618C86.5629 31.5618 85.4106 30.2229 85.4106 27.6835V21.6352C85.4106 19.0959 86.5629 17.7569 89.5589 17.7569C92.5549 17.7569 93.7072 19.0959 93.7072 21.6352Z" fill="white"/>
<path d="M118.253 3.95205C116.778 3.53651 115.165 3.30566 113.413 3.30566C108.435 3.30566 106.269 5.61417 106.269 10.2774V13.4169H102.674V17.8954H106.269V35.9018H111.892V17.8954H117.285L117.608 13.4169H111.892V10.6006C111.892 8.89225 112.215 7.92268 114.427 7.92268C115.349 7.92268 116.593 8.06119 117.654 8.29204L118.253 3.95205Z" fill="white"/>
<path d="M132.785 31.1924C131.817 31.4695 130.803 31.6542 129.973 31.6542C128.498 31.6542 127.945 30.8693 127.945 29.6688V17.8954H133.338L133.707 13.4169H127.945V7.04545L122.322 7.83034V13.4169H118.957V17.8954H122.322V30.4076C122.322 34.4244 124.396 36.3635 128.498 36.3635C129.927 36.3635 132.232 35.9941 133.43 35.4863L132.785 31.1924Z" fill="white"/>
<path d="M143.5 35.9018V3.44418L137.877 4.22907V35.9018H143.5Z" fill="white"/>
<path d="M166.579 21.0812C166.579 15.4484 164.505 12.9552 157.453 12.9552C154.964 12.9552 151.876 13.3708 149.755 14.0171L150.447 18.311C152.429 17.8954 154.641 17.6184 156.669 17.6184C160.264 17.6184 160.956 18.4957 160.956 20.9888V23.3435H155.563C151 23.3435 149.018 25.098 149.018 29.6688C149.018 33.5471 150.769 36.3635 154.872 36.3635C157.13 36.3635 159.527 35.7171 161.555 34.3782L161.97 35.9018H166.579V21.0812ZM160.956 30.7307C159.896 31.331 158.375 31.885 156.715 31.885C154.964 31.885 154.457 31.1924 154.457 29.6227C154.457 27.9144 154.964 27.4065 156.808 27.4065H160.956V30.7307Z" fill="white"/>
<path d="M191.479 35.9018V19.6037C191.479 15.5869 190.142 12.9552 186.408 12.9552C183.781 12.9552 180.232 13.9248 177.42 15.3099L176.867 13.4169H172.581V35.9018H178.204V20.2963C180.232 19.2344 182.675 18.4033 184.058 18.4033C185.348 18.4033 185.855 19.0035 185.855 20.2039V35.9018H191.479Z" fill="white"/>
<path d="M196.776 28.5607C196.776 33.6856 199.172 36.3635 203.689 36.3635C206.501 36.3635 208.806 35.4401 210.788 34.0088L211.341 35.9018H215.812V3.44418L210.188 4.22907V13.6016C208.437 13.2323 206.178 12.9552 204.196 12.9552C198.988 12.9552 196.776 15.9101 196.776 20.8965V28.5607ZM210.188 29.5303C208.99 30.6384 207.008 31.5618 205.164 31.5618C203.09 31.5618 202.399 30.5461 202.399 28.6993V20.758C202.399 18.7265 203.182 17.7569 205.211 17.7569C206.824 17.7569 208.714 18.034 210.188 18.3571V29.5303Z" fill="white"/>
<path d="M233.567 31.1924C232.599 31.4695 231.585 31.6542 230.755 31.6542C229.28 31.6542 228.727 30.8693 228.727 29.6688V17.8954H234.12L234.488 13.4169H228.727V7.04545L223.104 7.83034V13.4169H219.739V17.8954H223.104V30.4076C223.104 34.4244 225.178 36.3635 229.28 36.3635C230.709 36.3635 233.014 35.9941 234.212 35.4863L233.567 31.1924Z" fill="white"/>
<path d="M243.268 27.9605V26.8063H255.759V22.0046C255.759 17.1567 254.145 12.9552 246.955 12.9552C239.765 12.9552 237.644 16.972 237.644 21.7276V27.6835C237.644 33.0854 240.087 36.3635 247.139 36.3635C249.813 36.3635 252.855 35.9018 255.39 34.9322L254.514 30.6846C252.071 31.4233 249.813 31.7465 247.646 31.7465C244.236 31.7465 243.268 30.6846 243.268 27.9605ZM243.268 21.1735C243.268 19.0497 244.236 17.5722 247.001 17.5722C249.767 17.5722 250.412 19.0497 250.412 21.1735V22.2816H243.268V21.1735Z" fill="white"/>
<path d="M269.515 36.3635C271.358 36.3635 273.525 36.0403 275 35.5324L274.308 30.9154C272.695 31.331 271.082 31.5156 269.653 31.5156C266.426 31.5156 265.459 30.5461 265.459 27.7759V21.5429C265.459 18.7727 266.426 17.8031 269.653 17.8031C270.759 17.8031 272.787 17.9878 274.308 18.4033L275 13.7863C273.34 13.2323 271.082 12.9552 269.515 12.9552C262.463 12.9552 259.835 15.5408 259.835 21.5891V27.7297C259.835 33.778 262.463 36.3635 269.515 36.3635Z" fill="white"/>
<path d="M5.5005 22.0383V5.23391L14.4111 0.165039H23.2666L9.90077 7.76834V15.4267V24.5727L5.5005 22.0383Z" fill="#EF233C"/>
<path d="M28.6016 31.5708L14.4107 39.8353H14.4657L14.2457 40.0006L5.1151 34.7113L0.714826 27.0529L14.1357 34.8766L28.6016 26.502V31.5708Z" fill="#EF233C"/>
<path d="M10.8904 26.6118H10.8354L18.7559 31.1297L14.4106 33.6641L-0.00030889 25.2344V14.6008L4.39997 6.94238V22.6449L10.8904 26.6118Z" fill="#EF233C"/>
<path d="M11.0006 8.37466L25.4115 0L34.5421 5.28926L38.9424 13.0028L25.3015 5.12397L18.7011 8.98072H18.8111L11.0006 13.4986V8.37466Z" fill="#EF233C"/>
<path d="M25.1916 6.39062L39.6025 14.8204V25.3989L35.2023 33.0573V17.3548L28.7119 13.4981L20.7914 8.92506L25.1916 6.39062Z" fill="#EF233C"/>
<path d="M34.1025 17.9612V34.7656L25.192 39.8345H16.2814L29.7023 32.2312V24.5728V15.4268L34.1025 17.9612Z" fill="#EF233C"/>
</svg>
